<svg width="217" height="328" viewBox="0 0 217 328" fill="none" xmlns="http://www.w3.org/2000/svg">
<path d="M216.018 214.614C212.278 186.772 194.216 159.009 168.297 147.607C199.426 125.662 208.868 86.0674 193.842 51.2953C170.237 -3.35244 94.4626 -14.6569 48.8375 18.9244C6.07261 50.4167 3.99609 116.33 48.1519 147.139C-18.8067 181.95 -13.9679 278.359 50.4635 313.756C123.73 353.996 228.242 305.224 216.018 214.614ZM108.352 48.4837C129.783 48.4837 147.14 65.8406 147.14 87.2389C147.14 108.637 129.783 126.014 108.352 126.014C86.9204 126.014 69.5639 108.657 69.5639 87.2389C69.5639 65.821 86.9401 48.4837 108.352 48.4837ZM108.117 278.847C79.0845 278.847 55.5765 255.34 55.5765 226.328C55.5765 197.316 79.0845 173.808 108.117 173.808C137.149 173.808 160.657 197.316 160.657 226.328C160.657 255.34 137.13 278.847 108.117 278.847Z" fill="black"/>
</svg>
