<svg width="219" height="328" viewBox="0 0 219 328" fill="none" xmlns="http://www.w3.org/2000/svg">
<path d="M216.91 0.535015V36.095V36.3859L181.617 42.4473C182.826 43.9286 183.226 44.2593 184.56 45.7986C214.045 79.8973 208.377 127.168 169.846 151.076C211.122 170.775 228.681 221.476 213.732 263.835C184.599 346.452 44.6428 349.668 8.58458 271.279C-11.7595 227.087 4.95523 173.016 49.1942 151.544C-2.5193 115.419 6.44621 39.4076 61.8873 11.6804C77.1304 4.08128 94.4731 1.27545 111.423 0.496045C146.128 -1.10172 182.088 1.78205 216.91 0.535015ZM154.171 89.7568C154.171 64.9329 133.906 44.8243 108.932 44.8243C83.9576 44.8243 63.692 64.9524 63.692 89.7568C63.692 114.561 83.9576 134.689 108.932 134.689C133.906 134.689 154.171 114.561 154.171 89.7568ZM101.928 176.173C36.6974 183.538 34.6376 274.532 99.9661 281.82C191.171 292.012 185.658 166.703 101.928 176.173Z" fill="black"/>
</svg>
