<svg width="328" height="218" viewBox="0 0 328 218" fill="none" xmlns="http://www.w3.org/2000/svg">
<mask id="mask0_104_930" style="mask-type:luminance" maskUnits="userSpaceOnUse" x="0" y="0" width="328" height="218">
<path d="M328 218L328 1.43373e-05L9.52908e-06 0L0 218L328 218Z" fill="white"/>
</mask>
<g mask="url(#mask0_104_930)">
<path d="M21.1992 165.568C31.9841 175.254 45.8031 181.511 59.9481 183.953C64.6514 184.551 69.7276 184.81 75.1942 184.649C75.1942 184.649 85.9636 185.958 105.753 176.741C120.448 169.901 140.09 157.272 163.998 134.019C163.998 134.019 200.201 169.836 234.441 181.026C234.506 181.059 234.57 181.075 234.619 181.091C238.074 182.207 241.496 183.064 244.854 183.614C246.103 183.775 247.303 183.824 248.455 183.808C253.84 183.694 259.565 183.355 265.404 182.482C283.668 179.733 302.921 171.696 315.41 148.912C315.442 148.88 315.459 148.847 315.491 148.799C319.789 140.924 323.293 131.27 325.661 119.466L325.661 119.433C326.423 111.979 326.083 103.894 324.428 95.194C321.703 80.8508 314.356 69.0949 304.478 60.2175C293.692 50.5314 279.872 44.2735 265.729 41.8317C261.025 41.2334 255.948 40.9747 250.482 41.1364C250.482 41.1364 239.712 39.8267 219.924 49.0438C205.229 55.8837 185.587 68.5129 161.678 91.7659C161.678 91.7659 125.476 55.9485 91.235 44.7585C91.1706 44.7424 91.1061 44.7101 91.0573 44.6939C87.6016 43.5782 84.1811 42.721 80.823 42.1713C79.5734 42.0096 78.3727 41.9611 77.2227 41.9773C71.8205 42.0904 66.0473 42.43 60.1902 43.3355C39.9655 48.6072 21.3925 59.8132 10.2834 76.8567C10.2834 76.8567 10.2776 76.8621 10.2658 76.8728C5.93546 84.7802 2.3997 94.4662 0.0158392 106.319L0.0158392 106.352C-0.0173513 107.257 -1.03844 142.67 21.1992 165.568ZM259.565 75.0942C297.455 72.3291 313.22 143.786 258.041 151.71C232.219 155.429 191.701 113.078 191.701 113.078C191.701 113.078 222.73 77.7785 259.565 75.0942ZM67.6366 74.0754C93.4588 70.3562 133.975 112.706 133.975 112.706C133.975 112.706 102.947 148.006 66.1118 150.691C28.2219 153.456 12.4564 81.999 67.6366 74.0754Z" fill="black"/>
</g>
</svg>
