<svg width="219" height="328" viewBox="0 0 219 328" fill="none" xmlns="http://www.w3.org/2000/svg">
<mask id="mask0_104_17" style="mask-type:luminance" maskUnits="userSpaceOnUse" x="0" y="0" width="219" height="328">
<path d="M219 0H0V328H219V0Z" fill="white"/>
</mask>
<g mask="url(#mask0_104_17)">
<path d="M0 284.001C1.22738e-06 269.983 2.83231 241.804 8.33521 228.852C13.8381 215.9 21.9037 204.133 32.0718 194.221C42.2399 184.307 54.3111 176.444 67.5961 171.079C80.8814 165.714 95.1203 162.953 109.5 162.953C123.88 162.953 138.119 165.714 151.404 171.079C164.689 176.444 176.76 184.307 186.928 194.221C197.096 204.133 205.162 215.9 210.664 228.852C216.169 241.804 219 269.983 219 284.001H164.25C164.25 276.992 162.834 255.754 160.082 249.278C157.331 242.802 153.298 236.919 148.214 231.962C143.13 227.005 137.094 223.075 130.452 220.392C123.809 217.71 116.69 216.329 109.5 216.329C102.31 216.329 95.1907 217.71 88.5482 220.392C81.9054 223.075 75.8698 227.005 70.7859 231.962C65.702 236.917 61.6691 242.802 58.9177 249.278C56.1661 255.754 54.75 276.992 54.75 284.001H0Z" fill="black"/>
<path d="M219 44C219 58.0187 216.169 86.1972 210.664 99.1487C205.162 112.1 197.096 123.868 186.928 133.781C176.76 143.694 164.689 151.557 151.404 156.922C138.119 162.286 123.88 165.048 109.5 165.048C95.1203 165.048 80.8814 162.286 67.5961 156.922C54.311 151.557 42.2398 143.694 32.0718 133.781C21.9037 123.868 13.8381 112.1 8.33518 99.1487C2.8323 86.197 -3.71195e-06 58.0187 0 44H54.75C54.75 51.0094 56.1661 72.247 58.9176 78.7229C61.669 85.1986 65.702 91.0826 70.7859 96.039C75.87 100.995 81.9056 104.927 88.5482 107.609C95.1907 110.292 102.31 111.672 109.5 111.672C116.69 111.672 123.809 110.292 130.452 107.609C137.095 104.927 143.13 100.995 148.214 96.039C153.298 91.0826 157.331 85.1986 160.082 78.7229C162.834 72.247 164.25 51.0094 164.25 44H219Z" fill="black"/>
<path d="M0 328H219V292.857H0V328Z" fill="black"/>
<path d="M219 0H0V35.1429H219V0Z" fill="black"/>
</g>
</svg>
